<svg width="29" height="55" viewBox="0 0 29 55" fill="none" xmlns="http://www.w3.org/2000/svg">
<path fill-rule="evenodd" clip-rule="evenodd" d="M28.5185 0.93216C28.0291 0.892368 27.5371 0.872299 27.0435 0.872299C23.4589 0.872299 19.9541 1.93084 16.9688 3.91513C13.9834 5.89942 11.6506 8.72109 10.2628 12.0262C10.2157 12.1393 10.1277 12.2305 10.0165 12.2819C7.03895 13.6601 4.51561 15.8579 2.74174 18.618C0.967878 21.3782 0.0168841 24.5865 6.37543e-05 27.8675C-0.0252587 37.1458 7.49601 44.8851 16.7658 45.1194C19.8412 45.2052 22.8826 44.4582 25.5684 42.9574V53.4837C25.5684 53.8749 25.7238 54.2501 26.0004 54.5268C26.2771 54.8034 26.6523 54.9588 27.0435 54.9588C27.4347 54.9588 27.8099 54.8034 28.0865 54.5268C28.3601 54.2533 28.5151 53.8834 28.5185 53.4969V18.0682C28.5151 17.6818 28.3601 17.3119 28.0865 17.0384C27.8099 16.7618 27.4347 16.6063 27.0435 16.6063C26.6523 16.6063 26.2771 16.7618 26.0004 17.0384C25.7238 17.315 25.5684 17.6902 25.5684 18.0814V31.4291L15.9026 26.5962C15.7291 26.5077 15.5399 26.4545 15.3458 26.4395C15.1517 26.4246 14.9566 26.4482 14.7716 26.509C14.5867 26.5698 14.4156 26.6666 14.2683 26.7939C14.1209 26.9211 14.0003 27.0763 13.9132 27.2504C13.8261 27.4245 13.7743 27.6141 13.7609 27.8083C13.7474 28.0026 13.7725 28.1975 13.8348 28.382C13.897 28.5664 13.9952 28.7367 14.1236 28.8831C14.252 29.0294 14.4081 29.1489 14.5829 29.2346L25.5684 34.7274V39.5224C25.4138 39.5956 25.2648 39.6801 25.1227 39.7752C22.6782 41.4156 19.783 42.2528 16.8402 42.17C13.6213 42.0863 10.5254 40.9155 8.05658 38.8483C5.58773 36.7811 3.89125 33.9391 3.2433 30.7849C2.59534 27.6307 3.03404 24.3501 4.48801 21.477C5.94197 18.6039 8.32559 16.3075 11.2509 14.9616C12.0325 14.6022 12.6506 13.9624 12.9829 13.1689C14.1457 10.3995 16.1004 8.0352 18.6018 6.37254C21.1032 4.70988 24.0399 3.82291 27.0435 3.82291C27.5375 3.82291 28.0297 3.84691 28.5185 3.89441V0.93216Z" fill="black"/>
</svg>
