<svg width="20" height="37" viewBox="0 0 20 37" fill="none" xmlns="http://www.w3.org/2000/svg">
<path fill-rule="evenodd" clip-rule="evenodd" d="M19.1584 0.0402199C18.8296 0.0134843 18.4991 0 18.1675 0C15.7594 0 13.4049 0.711114 11.3994 2.04413C9.3939 3.37715 7.82671 5.27272 6.89441 7.49302C6.86274 7.56901 6.80368 7.63032 6.72892 7.66479C4.72868 8.59067 3.03353 10.0671 1.84187 11.9214C0.650208 13.7756 0.0113426 15.9309 4.28293e-05 18.135C-0.0169685 24.3681 5.03572 29.5673 11.263 29.7247C13.329 29.7823 15.3723 29.2805 17.1765 28.2723V35.3437C17.1765 35.6065 17.2809 35.8585 17.4668 36.0444C17.6526 36.2302 17.9046 36.3346 18.1675 36.3346C18.4303 36.3346 18.6823 36.2302 18.8682 36.0444C19.054 35.8585 19.1584 35.6065 19.1584 35.3437V28.2716C19.1584 28.2716 19.1584 28.2716 19.1584 28.2716V25.9645C19.1584 25.9645 19.1584 25.9645 19.1584 25.9645V18.7796L19.1584 18.7796V16.5638L19.1584 16.5639V11.5609C19.1584 11.2981 19.054 11.046 18.8682 10.8602C18.6823 10.6743 18.4303 10.5699 18.1675 10.5699C17.9046 10.5699 17.6526 10.6743 17.4668 10.8602C17.2809 11.046 17.1765 11.2981 17.1765 11.5609V20.5277L10.6831 17.281C10.5666 17.2216 10.4395 17.1858 10.3091 17.1757C10.1787 17.1657 10.0476 17.1815 9.92339 17.2224C9.79915 17.2632 9.68423 17.3283 9.58525 17.4138C9.48627 17.4993 9.40519 17.6035 9.34668 17.7205C9.28818 17.8374 9.2534 17.9648 9.24437 18.0953C9.23533 18.2258 9.25221 18.3567 9.29403 18.4806C9.33586 18.6046 9.40179 18.719 9.48804 18.8173C9.5743 18.9156 9.67915 18.9959 9.79657 19.0534L17.1765 22.7434V25.9647C17.0727 26.0138 16.9726 26.0706 16.8771 26.1344C15.2349 27.2365 13.2899 27.7989 11.3131 27.7433C9.15061 27.687 7.07085 26.9005 5.4123 25.5118C3.75376 24.1231 2.61409 22.2138 2.1788 20.0949C1.74351 17.976 2.03823 15.7721 3.01499 13.842C3.99174 11.9119 5.59302 10.3692 7.55818 9.46501C8.08326 9.22358 8.49852 8.79376 8.72172 8.26068C9.50288 6.40026 10.816 4.81195 12.4964 3.69499C14.1769 2.57804 16.1497 1.98218 18.1675 1.98218C18.4994 1.98218 18.8301 1.99831 19.1584 2.03022V0.0402199Z" fill="black"/>
</svg>
