<svg width="704" height="896" viewBox="0 0 704 896" fill="none" xmlns="http://www.w3.org/2000/svg">
<path d="M371.3 510.4L371.6 509C377.4 485.1 384.7 455.3 379 428.3C375.2 407 359.5 398.7 346.1 398.1C330.3 397.4 316.2 406.4 312.7 419.5C306.1 443.5 312 476.3 322.8 518.1C309.2 550.5 287.5 597.6 271.6 625.6C242 640.9 202.3 664.5 196.4 694.3C195.2 699.8 196.6 706.8 199.9 713.1C203.6 720.1 209.5 725.5 216.4 728.1C219.4 729.2 223 730.1 227.2 730.1C244.8 730.1 273.3 715.9 311.3 650.7C317.1 648.8 323.1 646.8 328.9 644.8C356.1 635.6 384.3 626 409.8 621.7C438 636.8 470.1 646.5 491.9 646.5C513.5 646.5 522 633.7 525.2 626C530.8 612.5 528.1 595.5 519 586.4C505.8 573.4 473.7 570 423.7 576.2C399.1 561.2 383 540.8 371.3 510.4ZM261.6 662.3C247.7 682.5 237.2 692.6 231.5 697C238.2 684.7 251.3 671.7 261.6 662.3ZM349.2 426.8C354.4 435.7 353.7 462.6 349.7 476.2C344.8 456.3 344.1 428.1 347 424.8C347.8 424.9 348.5 425.5 349.2 426.8ZM347.6 547.3C358.3 565.8 371.8 581.7 386.7 593.5C365.1 598.4 345.4 606.5 327.8 613.7C323.6 615.4 319.5 617.1 315.5 618.7C328.8 594.6 339.9 567.3 347.6 547.3V547.3ZM503.2 612.8C503.3 613 503.4 613.3 502.8 613.7H502.6L502.4 614C501.6 614.5 493.4 619.3 458.1 605.4C498.7 603.5 503.1 612.7 503.2 612.8V612.8ZM694.6 224.6L479.4 9.4C473.4 3.4 465.3 0 456.8 0H32C14.3 0 0 14.3 0 32V864C0 881.7 14.3 896 32 896H672C689.7 896 704 881.7 704 864V247.3C704 238.8 700.6 230.6 694.6 224.6V224.6ZM630.2 262H442V73.8L630.2 262ZM632 824H72V72H374V288C374 299.139 378.425 309.822 386.302 317.698C394.178 325.575 404.861 330 416 330H632V824Z" fill="white"/>
</svg>
